<?xml version="1.0" encoding="UTF-8"?>
<svg id="Lager_2" data-name="Lager 2" xmlns="http://www.w3.org/2000/svg" viewBox="0 0 117.54 117.54">
  <defs>
    <style>
      .cls-1 {
        fill: #222221;
        stroke-width: 0px;
      }
    </style>
  </defs>
  <g id="Lager_1-2" data-name="Lager 1">
    <path class="cls-1" d="m78.36,0h0C99.98,0,117.54,17.56,117.54,39.18h-39.18V0h0Z"/>
    <path class="cls-1" d="m0,78.36h39.18v39.18h0C17.56,117.54,0,99.98,0,78.36H0Z"/>
    <path class="cls-1" d="m117.54,78.36v39.18h-39.18v-28.67c0-2.78-1.1-5.45-3.07-7.42h0c-1.97-1.97-4.65-3.08-7.44-3.08h-28.67v-28.67c0-2.78-1.1-5.45-3.07-7.42h0c-1.97-1.97-4.65-3.08-7.44-3.08H0V0h39.18v28.67c0,2.78,1.1,5.45,3.07,7.42h0c1.97,1.97,4.65,3.08,7.44,3.08h28.67v28.67c0,2.78,1.1,5.45,3.07,7.42h0c1.97,1.97,4.65,3.08,7.44,3.08h28.67Z"/>
  </g>
</svg>